<?xml version="1.0" encoding="UTF-8"?>
<svg xmlns="http://www.w3.org/2000/svg" xmlns:xlink="http://www.w3.org/1999/xlink" width="30px" height="30px" viewBox="0 0 30 30" version="1.1">
<g id="surface191062">
<path style=" stroke:none;fill-rule:nonzero;fill:rgb(40%,40%,40%);fill-opacity:1;" d="M 5 4 C 4.449219 4 4 4.449219 4 5 L 4 9 C 4 9.550781 4.449219 10 5 10 L 10 10 C 10.550781 10 11 9.550781 11 9 L 11 5 C 11 4.449219 10.550781 4 10 4 Z M 15 6 C 14.640625 5.996094 14.304688 6.183594 14.121094 6.496094 C 13.941406 6.808594 13.941406 7.191406 14.121094 7.503906 C 14.304688 7.816406 14.640625 8.003906 15 8 L 25 8 C 25.359375 8.003906 25.695312 7.816406 25.878906 7.503906 C 26.058594 7.191406 26.058594 6.808594 25.878906 6.496094 C 25.695312 6.183594 25.359375 5.996094 25 6 Z M 5 12 C 4.449219 12 4 12.449219 4 13 L 4 17 C 4 17.550781 4.449219 18 5 18 L 10 18 C 10.550781 18 11 17.550781 11 17 L 11 13 C 11 12.449219 10.550781 12 10 12 Z M 15 14 C 14.640625 13.996094 14.304688 14.183594 14.121094 14.496094 C 13.941406 14.808594 13.941406 15.191406 14.121094 15.503906 C 14.304688 15.816406 14.640625 16.003906 15 16 L 25 16 C 25.359375 16.003906 25.695312 15.816406 25.878906 15.503906 C 26.058594 15.191406 26.058594 14.808594 25.878906 14.496094 C 25.695312 14.183594 25.359375 13.996094 25 14 Z M 5 20 C 4.449219 20 4 20.449219 4 21 L 4 25 C 4 25.550781 4.449219 26 5 26 L 10 26 C 10.550781 26 11 25.550781 11 25 L 11 21 C 11 20.449219 10.550781 20 10 20 Z M 15 22 C 14.640625 21.996094 14.304688 22.183594 14.121094 22.496094 C 13.941406 22.808594 13.941406 23.191406 14.121094 23.503906 C 14.304688 23.816406 14.640625 24.003906 15 24 L 25 24 C 25.359375 24.003906 25.695312 23.816406 25.878906 23.503906 C 26.058594 23.191406 26.058594 22.808594 25.878906 22.496094 C 25.695312 22.183594 25.359375 21.996094 25 22 Z M 15 22 "/>
</g>
</svg>
